#!OML:ASF F:\VICON\USERDATA\INSTALL\rory3\rory3.ASF
:FULLY-SPECIFIED
:DEGREES
81
root -0.103364 17.9808 -0.773374 2.57558 -10.5463 1.31918
lowerback -1.56087 -1.76526 -3.9398
upperback -1.01239 -2.30862 1.79121
thorax 0.0638439 -1.13913 4.01258
lowerneck -20.3034 0.399851 -9.28179
upperneck 30.3206 2.95775 2.81738
head 13.4699 0.569846 3.20631
rclavicle 2.82523e-014 -6.75868e-015
rhumerus -34.1497 -5.23702 -79.7432
rradius 29.2512
rwrist 21.22
rhand -17.4523 8.10506
rfingers 7.12502
rthumb 8.7989 -21.6915
lclavicle 2.82523e-014 -6.75868e-015
lhumerus -0.420921 -26.7823 79.3698
lradius 98.3806
lwrist -1.81144
lhand -36.4698 27.7296
lfingers 7.12502
lthumb -9.56309 57.4925
rfemur -8.44886 9.15572 15.1335
rtibia 25.5363
rfoot -16.4524 -3.61326
rtoes 4.51901
lfemur 0.749149 -2.09239 -21.7244
ltibia 11.8044
lfoot -10.6975 6.37759
ltoes -12.5371
82
root -0.1039 17.9801 -0.773163 2.60123 -10.5198 1.3507
lowerback -1.59927 -1.78309 -4.02793
upperback -1.01582 -2.33008 1.82977
thorax 0.0889219 -1.15012 4.1005
lowerneck -20.315 0.376671 -9.28839
upperneck 30.1586 2.94447 2.75696
head 13.4067 0.561758 3.17621
rclavicle 3.69243e-014 -1.23246e-014
rhumerus -34.1019 -5.03275 -79.7803
rradius 29.3222
rwrist 21.1349
rhand -17.6451 8.19509
rfingers 7.12502
rthumb 8.61286 -21.6092
lclavicle 3.69243e-014 -1.23246e-014
lhumerus 0.278267 -26.7206 78.7897
lradius 98.8693
lwrist -2.05522
lhand -36.1968 28.201
lfingers 7.12502
lthumb -9.29969 57.9759
rfemur -8.4755 9.1295 15.1014
rtibia 25.5418
rfoot -16.4653 -3.6553
rtoes 4.28022
lfemur 0.723378 -2.18253 -21.7617
ltibia 11.7901
lfoot -10.6438 6.46724
ltoes -12.5523
83
root -0.104167 17.98 -0.772234 2.59419 -10.5042 1.35629
lowerback -1.59261 -1.77976 -4.12625
upperback -0.994508 -2.32463 1.88179
thorax 0.11246 -1.14805 4.20982
lowerneck -20.3462 0.343467 -9.26896
upperneck 29.9421 2.90802 2.69772
head 13.3268 0.549146 3.13724
rclavicle 3.61415e-014 -2.10712e-014
rhumerus -34.0802 -4.85973 -79.7888
rradius 29.4885
rwrist 21.008
rhand -17.6851 8.38795
rfingers 7.12502
rthumb 8.57423 -21.418
lclavicle 3.61415e-014 -2.10712e-014
lhumerus 1.08229 -26.6513 78.1667
lradius 99.3196
lwrist -2.1872
lhand -35.8893 28.5696
lfingers 7.12502
lthumb -9.00296 58.3575
rfemur -8.46062 9.12957 15.0949
rtibia 25.5501
rfoot -16.5245 -3.66042
rtoes 4.39741
lfemur 0.760564 -2.17907 -21.7674
ltibia 11.7481
lfoot -10.6516 6.46622
ltoes -12.5546
84
root -0.104706 17.9801 -0.771293 2.54416 -10.4875 1.39399
lowerback -1.54665 -1.80102 -4.19552
upperback -1.00068 -2.35401 1.90322
thorax 0.0869705 -1.16181 4.27209
lowerneck -20.2993 0.361322 -9.28362
upperneck 29.731 2.92963 2.69573
head 13.2263 0.566129 3.13494
rclavicle 4.63541e-014 -6.75868e-015
rhumerus -34.1097 -4.6637 -79.8391
rradius 29.6277
rwrist 20.9435
rhand -17.5687 8.57531
rfingers 7.12502
rthumb 8.68654 -21.226
lclavicle 4.63541e-014 -6.75868e-015
lhumerus 1.77217 -26.5085 77.5167
lradius 99.7641
lwrist -2.2446
lhand -35.6386 28.3857
lfingers 7.12502
lthumb -8.76107 58.1839
rfemur -8.4035 9.11973 15.0642
rtibia 25.5584
rfoot -16.563 -3.62895
rtoes 4.35878
lfemur 0.823039 -2.16626 -21.8056
ltibia 11.7218
lfoot -10.6294 6.42147
ltoes -12.3499
85
root -0.105391 17.9792 -0.771478 2.50709 -10.4684 1.42387
lowerback -1.50785 -1.78427 -4.22163
upperback -1.00164 -2.33274 1.87865
thorax 0.0620006 -1.15044 4.26321
lowerneck -20.3668 0.345874 -9.19592
upperneck 29.6793 2.89001 2.67402
head 13.2232 0.557889 3.10487
rclavicle 1.55922e-014 1.59028e-015
rhumerus -34.1658 -4.62279 -79.8978
rradius 29.7683
rwrist 20.8712
rhand -17.4432 8.35555
rfingers 7.12502
rthumb 8.80768 -21.4407
lclavicle 1.55922e-014 1.59028e-015
lhumerus 2.50181 -26.5536 76.8346
lradius 100.231
lwrist -2.37543
lhand -35.6673 28.5496
lfingers 7.12502
lthumb -8.78871 58.3466
rfemur -8.36193 9.12276 15.0423
rtibia 25.5546
rfoot -16.5959 -3.63513
rtoes 4.32333
lfemur 0.84557 -2.19761 -21.8326
ltibia 11.7377
lfoot -10.6442 6.40318
ltoes -12.3819
86
root -0.105972 17.9789 -0.772253 2.50849 -10.4353 1.37945
lowerback -1.49621 -1.67445 -4.12999
upperback -0.985862 -2.18719 1.76493
thorax 0.0487158 -1.07783 4.0971
lowerneck -20.3722 0.257809 -8.91051
upperneck 29.5767 2.66386 2.65725
head 13.2006 0.4937 3.01038
rclavicle -1.53282e-014 -6.36111e-015
rhumerus -34.2308 -5.052 -79.9616
rradius 29.8793
rwrist 20.8541
rhand -17.3992 8.20428
rfingers 7.12502
rthumb 8.85011 -21.5901
lclavicle -1.53282e-014 -6.36111e-015
lhumerus 3.47942 -26.9338 75.9424
lradius 100.648
lwrist -2.42445
lhand -35.905 29.0525
lfingers 7.12502
lthumb -9.01818 58.8397
rfemur -8.35356 9.12991 15.1015
rtibia 25.5456
rfoot -16.5869 -3.7129
rtoes 4.26988
lfemur 0.833617 -2.1483 -21.7689
ltibia 11.7558
lfoot -10.6539 6.32463
ltoes -12.3895
87
root -0.106969 17.9795 -0.77313 2.5147 -10.42 1.33172
lowerback -1.4947 -1.57561 -4.03335
upperback -0.949403 -2.05586 1.67233
thorax 0.0654084 -1.01347 3.94903
lowerneck -20.45 0.184573 -8.70376
upperneck 29.4814 2.48242 2.68222
head 13.1908 0.445344 2.95428
rclavicle 2.64166e-014 1.23246e-014
rhumerus -34.2267 -5.42513 -80.0173
rradius 30.0054
rwrist 20.8192
rhand -17.2537 8.20089
rfingers 7.12502
rthumb 8.99055 -21.5875
lclavicle 2.64166e-014 1.23246e-014
lhumerus 4.65562 -27.2625 74.9487
lradius 101.04
lwrist -2.34481
lhand -36.0751 29.4293
lfingers 7.12502
lthumb -9.18231 59.2094
rfemur -8.35351 9.17 15.161
rtibia 25.5424
rfoot -16.5797 -3.73676
rtoes 4.42253
lfemur 0.817846 -2.14152 -21.7159
ltibia 11.7829
lfoot -10.6349 6.33146
ltoes -12.5709
88
root -0.107817 17.9801 -0.772752 2.5265 -10.4174 1.33045
lowerback -1.49299 -1.58606 -4.03975
upperback -0.920011 -2.0696 1.69782
thorax 0.0971817 -1.02162 3.97823
lowerneck -20.6025 0.169544 -8.80716
upperneck 29.3687 2.48185 2.77823
head 13.1723 0.451257 3.00877
rclavicle 2.09438e-014 1.94809e-014
rhumerus -34.1162 -5.32693 -80.0599
rradius 30.1436
rwrist 20.7101
rhand -17.0192 8.11887
rfingers 7.12502
rthumb 9.21679 -21.6597
lclavicle 2.09438e-014 1.94809e-014
lhumerus 5.76415 -27.2338 73.9986
lradius 101.525
lwrist -2.35339
lhand -35.9874 29.9258
lfingers 7.12502
lthumb -9.09769 59.7096
rfemur -8.35252 9.17223 15.1641
rtibia 25.5315
rfoot -16.594 -3.71728
rtoes 4.47915
lfemur 0.778895 -2.17523 -21.7144
ltibia 11.8388
lfoot -10.6511 6.35897
ltoes -12.4699
89
root -0.108411 17.9792 -0.773863 2.50661 -10.4196 1.34508
lowerback -1.45448 -1.60439 -4.07216
upperback -0.904209 -2.09508 1.72871
thorax 0.0966367 -1.03456 4.02879
lowerneck -20.552 0.182795 -8.92482
upperneck 29.0611 2.49188 2.90267
head 13.0284 0.472561 3.06906
rclavicle -2.18228e-014 2.78299e-015
rhumerus -34.0205 -5.16207 -80.1004
rradius 30.2324
rwrist 20.7024
rhand -17.1022 7.98318
rfingers 7.12502
rthumb 9.13677 -21.7989
lclavicle -2.18228e-014 2.78299e-015
lhumerus 6.6667 -27.0709 73.1819
lradius 101.946
lwrist -2.44278
lhand -35.8179 30.4049
lfingers 7.12502
lthumb -8.93405 60.1958
rfemur -8.32461 9.1933 15.1562
rtibia 25.5173
rfoot -16.5702 -3.75736
rtoes 4.6558
lfemur 0.751637 -2.21903 -21.7294
ltibia 11.91
lfoot -10.6714 6.40326
ltoes -12.474
90
root -0.109365 17.9785 -0.775402 2.50239 -10.4122 1.30505
lowerback -1.42253 -1.61831 -4.06365
upperback -0.886714 -2.11491 1.76628
thorax 0.0998178 -1.04492 4.06308
lowerneck -20.4466 0.204845 -8.95602
upperneck 28.684 2.503 2.94532
head 12.8486 0.495339 3.07955
rclavicle -3.85611e-014 -9.14409e-015
rhumerus -33.9162 -5.00425 -80.1608
rradius 30.2906
rwrist 20.6357
rhand -17.2464 7.99514
rfingers 7.12502
rthumb 8.99754 -21.793
lclavicle -3.85611e-014 -9.14409e-015
lhumerus 7.39361 -26.8722 72.5085
lradius 102.217
lwrist -2.64456
lhand -35.8773 30.6155
lfingers 7.12502
lthumb -8.99138 60.4039
rfemur -8.30952 9.20054 15.2091
rtibia 25.5117
rfoot -16.5625 -3.79083
rtoes 4.64954
lfemur 0.732607 -2.30501 -21.684
ltibia 11.965
lfoot -10.7254 6.45765
ltoes -12.4606
91
root -0.109541 17.9791 -0.7753 2.52942 -10.4338 1.24895
lowerback -1.44604 -1.60544 -4.02976
upperback -0.872086 -2.09723 1.79263
thorax 0.126058 -1.03705 4.07066
lowerneck -20.4338 0.204917 -8.93009
upperneck 28.4913 2.4833 2.96434
head 12.768 0.499929 3.07344
rclavicle -9.51371e-015 -7.95139e-015
rhumerus -33.7869 -4.93995 -80.2063
rradius 30.2736
rwrist 20.6166
rhand -17.4282 8.13578
rfingers 7.12502
rthumb 8.82217 -21.6598
lclavicle -9.51371e-015 -7.95139e-015
lhumerus 8.16746 -26.7482 71.7855
lradius 102.465
lwrist -2.52223
lhand -36.0953 30.2998
lfingers 7.12502
lthumb -9.20173 60.079
rfemur -8.34287 9.22751 15.2682
rtibia 25.5154
rfoot -16.5638 -3.81219
rtoes 4.48324
lfemur 0.682475 -2.2575 -21.6202
ltibia 12.0449
lfoot -10.7541 6.43573
ltoes -12.6082
92
root -0.110051 17.9782 -0.774594 2.54503 -10.4441 1.24278
lowerback -1.47069 -1.60201 -4.03055
upperback -0.866733 -2.09172 1.79821
thorax 0.145058 -1.03484 4.07618
lowerneck -20.5253 0.198165 -8.88497
upperneck 28.4495 2.47101 2.95253
head 12.7713 0.499376 3.05964
rclavicle 1.93877e-014 2.78299e-015
rhumerus -33.7212 -4.84691 -80.2684
rradius 30.3277
rwrist 20.5527
rhand -17.5713 8.3359
rfingers 7.12502
rthumb 8.68404 -21.4655
lclavicle 1.93877e-014 2.78299e-015
lhumerus 8.89949 -26.6232 71.0417
lradius 102.808
lwrist -2.03382
lhand -36.2274 29.6193
lfingers 7.12502
lthumb -9.32923 59.3928
rfemur -8.35267 9.21669 15.275
rtibia 25.4876
rfoot -16.5392 -3.81263
rtoes 4.32812
lfemur 0.566241 -2.2182 -21.6155
ltibia 12.271
lfoot -10.859 6.45546
ltoes -12.4894
